<svg xmlns="http://www.w3.org/2000/svg" xmlns:xlink="http://www.w3.org/1999/xlink" viewBox="0 0 64 64" id="dollar"><defs><path id="a" d="M41.75 52.24c4.16-.58 7.55-4.71 7.56-9.2 4.15 2.26 8.3 4.51 12.45 6.77-.01 4.49-3.4 8.62-7.56 9.2-3.74-2.03-8.72-4.73-12.45-6.77z"></path></defs><clipPath id="b"><use overflow="visible" xlink:href="#a"></use></clipPath><g clip-path="url(#b)"><path fill="#932e43" d="m54.19 59.02-12.45-6.77c.77-.11 1.5-.33 2.2-.66l12.45 6.77c-.69.32-1.43.55-2.2.66"></path><path fill="#8f2d41" d="m56.4 58.35-12.45-6.77c.43-.2.84-.44 1.23-.71l12.45 6.77c-.4.28-.81.51-1.23.71"></path><path fill="#8a2b3f" d="m57.62 57.65-12.45-6.77c.32-.22.62-.46.91-.72l12.45 6.77c-.29.25-.59.5-.91.72"></path><path fill="#862a3d" d="m58.53 56.92-12.45-6.77c.27-.24.53-.5.77-.78l12.45 6.77c-.24.28-.49.54-.77.78"></path><path fill="#81293b" d="m59.31 56.14-12.45-6.77c.24-.27.47-.56.68-.86l12.45 6.77c-.22.3-.44.59-.68.86"></path><path fill="#7d2739" d="m59.99 55.28-12.45-6.77c.22-.32.43-.65.62-1l12.45 6.77c-.19.35-.4.68-.62 1"></path><path fill="#782637" d="m60.6 54.28-12.45-6.77c.22-.41.41-.83.57-1.27l12.45 6.77c-.16.44-.35.86-.57 1.27"></path><path fill="#742435" d="m61.17 53.01-12.45-6.77c.37-1.01.58-2.1.58-3.2.01-2.9-1.39-5.25-3.5-6.4l12.45 6.77c2.11 1.15 3.51 3.5 3.5 6.4 0 1.11-.2 2.19-.58 3.2"></path></g><defs><path id="c" d="M44.37 47.87c.5-.68.76-1.48.76-2.38 4.15 2.26 8.3 4.51 12.45 6.77 0 .9-.26 1.7-.76 2.38-3.74-2.03-8.71-4.74-12.45-6.77z"></path></defs><clipPath id="d"><use overflow="visible" xlink:href="#c"></use></clipPath><g clip-path="url(#d)"><path fill="#8b8d8e" d="m56.82 54.64-12.45-6.77c.02-.03.04-.05.05-.08l12.45 6.77c-.01.03-.03.06-.05.08"></path><path fill="#868889" d="M56.87 54.57 44.43 47.8c.09-.13.17-.26.24-.39l12.45 6.77c-.08.13-.16.26-.25.39"></path><path fill="#818384" d="M57.12 54.17 44.67 47.4c.09-.16.16-.32.22-.49l12.45 6.77c-.07.17-.14.34-.22.49"></path><path fill="#7c7e7f" d="m57.34 53.68-12.45-6.77c.16-.44.24-.92.24-1.42 0-.8-.19-1.44-.59-1.9-.14-.16-.33-.3-.55-.43l12.45 6.77c.23.12.41.27.55.43.4.46.6 1.1.59 1.9 0 .51-.08.98-.24 1.42"></path></g><defs><path id="e" d="M42.27 49.3c.9-.27 1.6-.74 2.1-1.43l12.45 6.77c-.5.69-1.2 1.16-2.1 1.43-3.74-2.03-8.72-4.74-12.45-6.77z"></path></defs><clipPath id="f"><use overflow="visible" xlink:href="#e"></use></clipPath><g clip-path="url(#f)"><path fill="#9ea0a2" d="M54.72 56.07 42.27 49.3c.23-.07.46-.15.66-.25l12.45 6.77c-.21.1-.43.18-.66.25"></path><path fill="#999c9d" d="m55.38 55.82-12.45-6.77c.2-.09.39-.2.57-.32l12.45 6.77c-.18.12-.37.22-.57.32"></path><path fill="#949798" d="M55.95 55.49 43.5 48.72c.13-.09.25-.19.37-.29l12.45 6.77c-.12.11-.24.21-.37.29"></path><path fill="#8f9293" d="m56.31 55.21-12.45-6.77c.1-.09.2-.19.29-.29l12.45 6.77c-.09.1-.19.19-.29.29"></path><path fill="#8b8d8e" d="m56.6 54.91-12.45-6.77c.08-.09.15-.18.22-.27l12.45 6.77c-.07.1-.14.19-.22.27"></path></g><path fill="#7a7c7d" d="m54.71 57.46-12.44-6.77V49.3l12.45 6.77z"></path><path fill="#a9acad" d="m53.71 57.61-12.45-6.78 1.01-.14 12.44 6.77z"></path><defs><path id="g" d="M45.13 45.49c0-.8-.19-1.44-.59-1.9 4.15 2.26 8.3 4.51 12.45 6.77.4.46.6 1.1.59 1.9-4.15-2.25-8.3-4.51-12.45-6.77z"></path></defs><clipPath id="h"><use overflow="visible" xlink:href="#g"></use></clipPath><g clip-path="url(#h)"><path fill="#7c7e7f" d="m57.34 53.68-12.45-6.77c.16-.44.24-.92.24-1.42 0-.8-.19-1.44-.59-1.9-.14-.16-.33-.3-.55-.43l12.45 6.77c.23.12.41.27.55.43.4.46.6 1.1.59 1.9 0 .51-.08.98-.24 1.42"></path></g><defs><path id="i" d="m54.72 54.43-12.45-6.77c.34-.12.63-.33.84-.64l12.45 6.77c-.21.3-.5.52-.84.64z"></path></defs><clipPath id="j"><use overflow="visible" xlink:href="#i"></use></clipPath><g clip-path="url(#j)"><path fill="#2d3c45" d="m54.72 54.43-12.45-6.77c.06-.02.12-.04.17-.07l12.45 6.77c-.05.02-.11.05-.17.07"></path><path fill="#2c3a43" d="m54.89 54.36-12.45-6.77c.08-.04.16-.09.24-.14l12.45 6.77c-.07.05-.15.1-.24.14"></path><path fill="#2a3841" d="m55.13 54.22-12.45-6.77c.06-.04.11-.08.16-.13l12.45 6.77c-.05.05-.1.09-.16.13"></path><path fill="#29373f" d="m55.3 54.09-12.45-6.77c.05-.04.09-.09.14-.14l12.45 6.77-.14.14"></path><path fill="#27353d" d="m55.43 53.95-12.45-6.77c.04-.05.08-.1.12-.16l12.45 6.77a.61.61 0 0 1-.12.16"></path><path fill="#26333b" d="m55.55 53.8-12.44-6.77v-.01l12.45 6.77-.01.01"></path></g><path fill="#232e36" d="m53.71 57.61-12.45-6.78v-1.35l12.45 6.77z"></path><defs><path id="k" d="M39.65 52.22c.67.11 1.37.13 2.1.02l12.45 6.77c-.73.1-1.43.09-2.1-.02-4.15-2.26-8.3-4.51-12.45-6.77z"></path></defs><clipPath id="l"><use overflow="visible" xlink:href="#k"></use></clipPath><g clip-path="url(#l)"><path fill="#932e43" d="m51.58 58.88-12.45-6.77c.81.21 1.69.26 2.61.13l12.45 6.77c-.91.13-1.79.08-2.61-.13"></path></g><defs><path id="m" d="M44.54 43.59c-.14-.16-.33-.3-.55-.43l12.45 6.77c.23.12.41.27.55.43-2.07-1.13-4.15-2.26-6.22-3.39-.24-.13-.57-.31-.82-.44l-.81-.44-1.6-.87c-.23-.13-.55-.3-.78-.42-.23-.12-.53-.29-.76-.41-.44-.24-1.07-.49-1.46-.8z"></path></defs><clipPath id="n"><use overflow="visible" xlink:href="#m"></use></clipPath><g clip-path="url(#n)"><path fill="#7c7e7f" d="m57.34 53.68-12.45-6.77c.16-.44.24-.92.24-1.42 0-.8-.19-1.44-.59-1.9-.14-.16-.33-.3-.55-.43l12.45 6.77c.23.12.41.27.55.43.4.46.6 1.1.59 1.9 0 .51-.08.98-.24 1.42"></path></g><defs><path id="o" d="m42.87 44.94 12.45 6.77c.12.07.22.15.3.24.18.21.28.49.28.82 0 .38-.11.72-.33 1.02l-12.45-6.77c.22-.31.33-.64.33-1.02 0-.33-.09-.61-.28-.82a.886.886 0 0 0-.3-.24z"></path></defs><clipPath id="p"><use overflow="visible" xlink:href="#o"></use></clipPath><g clip-path="url(#p)"><path fill="#27353d" d="m55.56 53.79-12.45-6.77c0-.01.01-.01.01-.02l12.45 6.77c0 .01-.01.01-.01.02"></path><path fill="#26333b" d="M55.57 53.77 43.12 47c.04-.06.08-.12.12-.19l12.45 6.77c-.04.07-.08.13-.12.19"></path><path fill="#253139" d="m55.69 53.59-12.45-6.77c.04-.07.07-.14.1-.22l12.45 6.77c-.03.07-.07.15-.1.22"></path><path fill="#232f37" d="M55.78 53.37 43.34 46.6c.07-.19.1-.39.1-.6 0-.33-.09-.61-.28-.82-.08-.09-.18-.17-.3-.24l12.45 6.77c.12.07.22.15.3.24.18.21.28.49.28.82 0 .21-.04.41-.11.6"></path></g><defs><path id="q" d="M53.55 54.38 41.1 47.61c.05.03.11.06.17.08l12.45 6.77a.886.886 0 0 1-.17-.08z"></path></defs><clipPath id="r"><use overflow="visible" xlink:href="#q"></use></clipPath><g clip-path="url(#r)"><path fill="#2a3841" d="M53.55 54.38 41.1 47.61c.02.01.03.02.05.02L53.6 54.4c-.02 0-.04-.01-.05-.02"></path><path fill="#2c3a43" d="m53.59 54.41-12.45-6.77c.04.02.08.04.12.05l12.45 6.77c-.04-.02-.08-.03-.12-.05"></path></g><path fill="#7a7c7d" d="m54.72 54.43-12.45-6.77.01-2.92 12.45 6.78z"></path><defs><path id="s" d="M42.28 44.74c.23.04.43.11.59.19l12.45 6.77a1.86 1.86 0 0 0-.59-.19c-3.74-2.03-8.72-4.73-12.45-6.77z"></path></defs><clipPath id="t"><use overflow="visible" xlink:href="#s"></use></clipPath><g clip-path="url(#t)"><path fill="#9ea0a2" d="m54.73 51.52-12.45-6.77c.06.01.13.03.19.04l12.45 6.77c-.07-.02-.13-.03-.19-.04"></path><path fill="#999c9d" d="m54.91 51.56-12.45-6.77c.13.03.25.08.35.13l12.45 6.77c-.1-.06-.22-.1-.35-.13"></path><path fill="#949798" d="m55.26 51.68-12.45-6.77c.02.01.03.02.05.03l12.45 6.77a.219.219 0 0 0-.05-.03"></path></g><defs><path id="u" d="m52.28 55.93-12.45-6.77c.41.22.89.33 1.44.32l12.45 6.77c-.56.01-1.04-.1-1.44-.32z"></path></defs><clipPath id="v"><use overflow="visible" xlink:href="#u"></use></clipPath><g clip-path="url(#v)"><path fill="#949798" d="m52.28 55.93-12.45-6.77c.03.02.06.03.09.05l12.45 6.77c-.04-.02-.07-.04-.09-.05"></path><path fill="#999c9d" d="M52.36 55.97 39.92 49.2c.15.08.32.14.49.18l12.45 6.77c-.18-.04-.34-.1-.5-.18"></path><path fill="#9ea0a2" d="M52.85 56.15 40.4 49.38c.26.07.55.1.86.1l12.45 6.77c-.31.01-.59-.03-.86-.1"></path></g><path fill="#232e36" d="m53.71 54.46-12.44-6.77v-3.13l12.45 6.77z"></path><defs><path id="w" d="M53.55 54.38 41.1 47.61c-.18-.1-.35-.25-.51-.45l12.45 6.77c.15.2.32.35.51.45z"></path></defs><clipPath id="x"><use overflow="visible" xlink:href="#w"></use></clipPath><g clip-path="url(#x)"><path fill="#7c7e7f" d="M53.55 54.38 41.1 47.61c-.18-.1-.35-.25-.51-.45l12.45 6.77c.15.2.32.35.51.45"></path></g><defs><path id="y" d="M49.31 43.04c.01-2.9-1.39-5.25-3.5-6.4l12.45 6.77c2.11 1.15 3.51 3.5 3.5 6.4-4.15-2.26-8.3-4.51-12.45-6.77z"></path></defs><clipPath id="z"><use overflow="visible" xlink:href="#y"></use></clipPath><g clip-path="url(#z)"><path fill="#742435" d="m61.17 53.01-12.45-6.77c.37-1.01.58-2.1.58-3.2.01-2.9-1.39-5.25-3.5-6.4l12.45 6.77c2.11 1.15 3.51 3.5 3.5 6.4 0 1.11-.2 2.19-.58 3.2"></path></g><defs><path id="A" d="m43.99 43.17 12.45 6.77c-.42-.23-.99-.4-1.7-.51l-12.45-6.77c.71.11 1.27.28 1.7.51z"></path></defs><clipPath id="B"><use overflow="visible" xlink:href="#A"></use></clipPath><g clip-path="url(#B)"><path fill="#2d3c45" d="m54.73 49.43-12.45-6.77c.28.04.54.09.77.16l12.45 6.77c-.24-.07-.49-.12-.77-.16"></path><path fill="#2c3a43" d="m55.5 49.58-12.45-6.77c.32.08.59.18.83.3l12.45 6.77c-.24-.11-.51-.21-.83-.3"></path><path fill="#2a3841" d="m56.33 49.88-12.45-6.77c.04.02.07.04.11.06l12.45 6.77a1.09 1.09 0 0 1-.11-.06"></path></g><path fill="#a9acae" d="m55.56 47.59-12.45-6.77 1.75-.49 12.45 6.77z"></path><defs><path id="C" d="m53.04 53.93-12.45-6.77c-.2-.26-.33-.58-.41-.97l12.45 6.77c.07.39.21.71.41.97z"></path></defs><clipPath id="D"><use overflow="visible" xlink:href="#C"></use></clipPath><g clip-path="url(#D)"><path fill="#7c7e7f" d="m53.04 53.93-12.45-6.77c-.2-.26-.33-.58-.41-.97l12.45 6.77c.07.39.21.71.41.97"></path></g><defs><path id="E" d="m43.65 38.39 12.45 6.77c.14.08.27.17.38.27.44.38.71.94.83 1.67l-12.45-6.77c-.12-.73-.39-1.29-.83-1.67-.11-.1-.24-.2-.38-.27z"></path></defs><clipPath id="F"><use overflow="visible" xlink:href="#E"></use></clipPath><g clip-path="url(#F)"><path fill="#7c7e7f" d="m57.31 47.1-12.45-6.77c-.12-.73-.39-1.29-.83-1.67-.12-.11-.24-.2-.38-.27l12.45 6.77c.14.08.27.17.38.27.44.38.71.94.83 1.67"></path></g><defs><path id="G" d="m42.48 39.82 12.45 6.77c.33.18.54.51.63 1l-12.45-6.77c-.09-.49-.3-.82-.63-1z"></path></defs><clipPath id="H"><use overflow="visible" xlink:href="#G"></use></clipPath><g clip-path="url(#H)"><path fill="#232f37" d="m55.56 47.59-12.45-6.77c-.09-.49-.3-.82-.63-1l12.45 6.77c.33.19.54.51.63 1"></path></g><defs><path id="I" d="M52.45 50.93 40 44.16c.35.19.77.33 1.27.41l12.45 6.77c-.5-.09-.92-.22-1.27-.41z"></path></defs><clipPath id="J"><use overflow="visible" xlink:href="#I"></use></clipPath><g clip-path="url(#J)"><path fill="#949798" d="M52.45 50.93 40 44.16c.04.02.07.04.11.06l12.45 6.77a.238.238 0 0 0-.11-.06"></path><path fill="#999c9d" d="m52.56 50.98-12.45-6.77c.21.1.45.19.71.26l12.45 6.77c-.26-.07-.5-.15-.71-.26"></path><path fill="#9ea0a2" d="m53.27 51.24-12.45-6.77c.14.04.29.07.45.09l12.45 6.77c-.16-.02-.31-.05-.45-.09"></path></g><defs><path id="K" d="M53.45 49.09 41 42.32c.08.05.18.08.28.12l12.45 6.77c-.11-.03-.2-.07-.28-.12z"></path></defs><clipPath id="L"><use overflow="visible" xlink:href="#K"></use></clipPath><g clip-path="url(#L)"><path fill="#2a3841" d="M53.45 49.09 41 42.32c.02.01.03.02.05.03l12.45 6.77c-.02-.01-.04-.02-.05-.03"></path><path fill="#2c3a43" d="m53.5 49.12-12.45-6.77c.07.03.15.06.23.09l12.45 6.77c-.09-.03-.16-.06-.23-.09"></path></g><path fill="#7a7c7d" d="m54.73 49.43-12.45-6.77.01-2.92 12.44 6.77z"></path><defs><path id="M" d="m52.28 55.93-12.45-6.77c-.18-.1-.35-.22-.5-.36-.49-.47-.81-1.18-.95-2.14l12.45 6.77c.14.96.46 1.67.95 2.14.15.14.31.26.5.36z"></path></defs><clipPath id="N"><use overflow="visible" xlink:href="#M"></use></clipPath><g clip-path="url(#N)"><path fill="#232f37" d="m52.28 55.93-12.45-6.77c-.18-.1-.35-.22-.5-.36-.49-.47-.81-1.18-.95-2.14l12.45 6.77c.14.96.46 1.67.95 2.14.15.14.31.26.5.36"></path></g><path fill="#232e36" d="m53.72 49.21-12.44-6.77v-2.58l12.45 6.77z"></path><defs><path id="O" d="M53.45 49.09 41 42.32c-.16-.09-.29-.2-.39-.33l12.45 6.77c.1.13.22.25.39.33z"></path></defs><clipPath id="P"><use overflow="visible" xlink:href="#O"></use></clipPath><g clip-path="url(#P)"><path fill="#7c7e7f" d="M53.45 49.09 41 42.32c-.16-.09-.29-.2-.39-.33l12.45 6.77c.1.13.22.25.39.33"></path></g><defs><path id="Q" d="m43.65 38.39 12.45 6.77c-.37-.2-.83-.3-1.36-.29L42.29 38.1c.53-.01.99.09 1.36.29z"></path></defs><clipPath id="R"><use overflow="visible" xlink:href="#Q"></use></clipPath><g clip-path="url(#R)"><path fill="#2d3c45" d="M54.74 44.87 42.29 38.1c.31 0 .59.03.84.09l12.45 6.77c-.25-.07-.54-.1-.84-.09"></path><path fill="#2c3a43" d="m55.58 44.96-12.45-6.77c.16.04.3.09.44.16l12.45 6.77c-.14-.07-.28-.12-.44-.16"></path><path fill="#2a3841" d="m56.02 45.12-12.45-6.77c.03.01.05.03.08.04l12.45 6.77c-.03-.01-.06-.03-.08-.04"></path></g><defs><path id="S" d="M40.61 41.99c-.15-.21-.22-.44-.22-.71 4.15 2.26 8.3 4.51 12.45 6.77 0 .27.07.5.22.71-3.74-2.03-9.28-3.94-12.45-6.77z"></path></defs><clipPath id="T"><use overflow="visible" xlink:href="#S"></use></clipPath><g clip-path="url(#T)"><path fill="#7c7e7f" d="M53.05 48.76 40.6 41.99c-.15-.21-.22-.44-.22-.71 0-.18.03-.35.09-.52l12.45 6.77c-.06.17-.09.34-.09.52.01.27.08.5.22.71"></path></g><defs><path id="U" d="M40.63 40.46c.16-.27.38-.46.65-.6l12.45 6.77c-.27.14-.49.34-.65.6-3.73-2.03-8.71-4.74-12.45-6.77z"></path></defs><clipPath id="V"><use overflow="visible" xlink:href="#U"></use></clipPath><g clip-path="url(#V)"><path fill="#868889" d="m53.08 47.23-12.45-6.77.06-.09 12.45 6.77-.06.09"></path><path fill="#8b8d8e" d="m53.14 47.14-12.45-6.77c.03-.05.07-.09.11-.14L53.25 47c-.04.04-.08.09-.11.14"></path><path fill="#8f9293" d="M53.25 47 40.8 40.23c.04-.04.08-.09.13-.13l12.45 6.77a.8.8 0 0 0-.13.13"></path><path fill="#949798" d="M53.38 46.87 40.93 40.1c.05-.05.1-.09.16-.13l12.45 6.77c-.06.04-.11.09-.16.13"></path><path fill="#999c9d" d="m53.54 46.74-12.45-6.77c.06-.04.12-.08.19-.12l12.45 6.77c-.07.04-.13.08-.19.12"></path></g><defs><path id="W" d="M40.39 41.28c0-.28.08-.56.24-.82l12.45 6.77c-.16.26-.24.54-.24.82-4.15-2.26-8.3-4.51-12.45-6.77z"></path></defs><clipPath id="X"><use overflow="visible" xlink:href="#W"></use></clipPath><g clip-path="url(#X)"><path fill="#7c7e7f" d="M53.05 48.76 40.6 41.99c-.15-.21-.22-.44-.22-.71 0-.18.03-.35.09-.52l12.45 6.77c-.06.17-.09.34-.09.52.01.27.08.5.22.71"></path><path fill="#818384" d="m52.93 47.53-12.45-6.77.09-.21 12.45 6.77-.09.21"></path><path fill="#868889" d="m53.02 47.32-12.45-6.77c.02-.03.04-.06.05-.09l12.45 6.77c-.01.03-.03.06-.05.09"></path></g><path fill="#7a7c7d" d="M54.74 44.87 42.29 38.1v-.74l12.45 6.77z"></path><defs><path id="Y" d="m42.48 39.82 12.45 6.77c-.06-.03-.13-.06-.19-.08l-12.45-6.77c.07.02.13.05.19.08z"></path></defs><clipPath id="Z"><use overflow="visible" xlink:href="#Y"></use></clipPath><g clip-path="url(#Z)"><path fill="#999c9d" d="m54.73 46.51-12.45-6.77.15.06 12.45 6.77c-.04-.02-.09-.04-.15-.06"></path><path fill="#949798" d="M54.89 46.57 42.44 39.8c.01.01.03.01.04.02l12.45 6.77c-.02 0-.03-.01-.04-.02"></path></g><defs><path id="aa" d="M52.45 50.93 40 44.16c-.29-.16-.52-.35-.71-.57-.42-.51-.63-1.16-.63-1.96 0-.82.24-1.54.72-2.15.47-.63 1.12-1.03 1.9-1.23l12.45 6.77c-.79.2-1.43.6-1.9 1.23-.47.62-.72 1.34-.72 2.15 0 .8.21 1.46.63 1.96.19.22.43.41.71.57z"></path></defs><clipPath id="ab"><use overflow="visible" xlink:href="#aa"></use></clipPath><g clip-path="url(#ab)"><path fill="#232f37" d="M52.45 50.93 40 44.16c-.29-.16-.52-.35-.71-.57-.42-.51-.63-1.16-.63-1.96 0-.45.07-.86.21-1.25l12.45 6.77c-.14.39-.21.8-.21 1.25 0 .8.21 1.46.63 1.96.19.22.43.41.71.57"></path><path fill="#253139" d="m51.32 47.14-12.45-6.77c.05-.15.12-.29.19-.43l12.45 6.77c-.07.14-.13.28-.19.43"></path><path fill="#26333b" d="m51.52 46.71-12.45-6.77c.06-.12.14-.24.22-.35l12.45 6.77c-.09.12-.16.23-.22.35"></path><path fill="#27353d" d="m51.73 46.36-12.45-6.77c.03-.04.06-.09.09-.13.05-.07.1-.13.16-.19l12.45 6.77-.16.19c-.03.05-.06.09-.09.13"></path><path fill="#29373f" d="m51.99 46.04-12.45-6.77c.08-.09.17-.18.26-.26l12.45 6.77c-.09.08-.18.17-.26.26"></path><path fill="#2a3841" d="M52.25 45.78 39.8 39.01c.1-.09.21-.18.32-.25l12.45 6.77c-.11.07-.22.16-.32.25"></path><path fill="#2c3a43" d="m52.57 45.52-12.45-6.77c.15-.1.31-.19.47-.27l12.45 6.77c-.17.08-.32.17-.47.27"></path><path fill="#2d3c45" d="m53.04 45.25-12.45-6.77c.22-.1.45-.18.69-.24l12.45 6.77c-.24.06-.47.14-.69.24"></path></g><path fill="#3b4f5c" d="M56.99 50.36c.4.46.6 1.1.59 1.9 0 .9-.26 1.7-.76 2.38-.5.69-1.2 1.16-2.1 1.43v1.39l-1.01.14v-1.35c-.79.01-1.44-.22-1.94-.69-.49-.47-.81-1.18-.95-2.14l1.8-.47c.08.39.22.71.41.97.2.26.43.44.68.53l.01-3.12c-.9-.15-1.56-.48-1.98-.98-.42-.51-.63-1.16-.63-1.96 0-.82.24-1.54.72-2.15.47-.63 1.12-1.03 1.9-1.23v-.74l1.01-.14v.74c.73-.01 1.31.18 1.74.57.44.38.71.94.83 1.67l-1.75.49c-.1-.58-.38-.93-.82-1.08l-.01 2.92c1.1.16 1.86.47 2.26.92zm-1.43 3.43c.22-.31.33-.64.33-1.02 0-.33-.09-.61-.28-.82-.18-.22-.48-.36-.89-.43l-.01 2.91c.35-.12.64-.34.85-.64m-1.84-4.58v-2.58a1.633 1.633 0 0 0-.89 1.42c0 .27.07.5.22.71.16.2.38.36.67.45"></path><path fill="#d1d4d6" d="M54.73 51.52c.41.08.71.22.89.43.18.21.28.49.28.82 0 .38-.11.72-.33 1.02-.21.31-.5.52-.84.64v-2.91z"></path><defs><path id="ac" d="M37.71 51.55c.59.32 1.24.55 1.94.67 4.15 2.26 8.3 4.51 12.45 6.77a6.47 6.47 0 0 1-1.94-.67c-3.73-2.03-8.71-4.74-12.45-6.77z"></path></defs><clipPath id="ad"><use overflow="visible" xlink:href="#ac"></use></clipPath><g clip-path="url(#ad)"><path fill="#8a2b3f" d="m50.16 58.32-12.45-6.77c.08.04.15.08.23.12l12.45 6.77c-.08-.04-.15-.08-.23-.12"></path><path fill="#8f2d41" d="m50.39 58.44-12.45-6.77c.38.19.78.33 1.19.44l12.45 6.77c-.41-.11-.81-.25-1.19-.44"></path><path fill="#932e43" d="m51.58 58.88-12.45-6.77c.81.21 1.69.26 2.61.13l12.45 6.77c-.91.13-1.79.08-2.61-.13"></path></g><path fill="#30414a" d="m50.82 53.42-12.44-6.77 1.8-.46 12.44 6.77z"></path><path fill="#232e36" d="m53.73 45.01-12.44-6.77v-.74l12.44 6.77z"></path><path fill="#30404a" d="M53.73 44.27 41.29 37.5l1-.14 12.45 6.77z"></path><path fill="#d1d4d6" d="M54.22 42.72c4.16-.58 7.54 2.59 7.53 7.09-.01 4.49-3.4 8.62-7.56 9.2-4.17.59-7.55-2.59-7.54-7.08.01-4.5 3.4-8.62 7.57-9.21zm2.6 11.92c.5-.68.76-1.48.76-2.38 0-.8-.19-1.44-.59-1.9-.4-.46-1.16-.77-2.26-.93l.01-2.92c.44.15.72.5.82 1.08l1.75-.49c-.12-.73-.39-1.29-.83-1.67-.43-.39-1.01-.57-1.74-.57v-.74l-1.01.14V45c-.79.2-1.43.6-1.9 1.23-.47.62-.72 1.34-.72 2.15 0 .8.21 1.46.63 1.96.42.5 1.08.83 1.98.98l-.01 3.12c-.25-.09-.47-.26-.68-.53-.2-.26-.33-.58-.41-.97l-1.8.47c.14.96.46 1.67.95 2.14.49.47 1.14.7 1.94.69v1.35l1.01-.14v-1.39c.89-.26 1.59-.72 2.1-1.42"></path><path fill="#d1d4d6" d="M53.08 47.23c.16-.27.38-.46.65-.6v2.58c-.3-.09-.52-.25-.67-.45-.15-.21-.22-.44-.22-.71 0-.28.08-.56.24-.82z"></path><defs><path id="ae" d="m47.01 34.42 12.45 6.77a8.31 8.31 0 0 0-3.73-.99l-12.45-6.77c1.35.04 2.61.39 3.73.99z"></path></defs><clipPath id="af"><use overflow="visible" xlink:href="#ae"></use></clipPath><g clip-path="url(#af)"><path fill="#932e43" d="m55.72 40.21-12.45-6.77c.65.02 1.29.11 1.89.26l12.45 6.77c-.6-.16-1.23-.24-1.89-.26"></path><path fill="#8f2d41" d="M57.61 40.47 45.17 33.7c.54.14 1.05.33 1.54.57l12.45 6.77c-.49-.24-1.01-.43-1.55-.57"></path><path fill="#8a2b3f" d="m59.16 41.04-12.45-6.77.3.15 12.45 6.77-.3-.15"></path></g><defs><path id="ag" d="m45.8 36.64 12.45 6.77c-1.16-.63-2.55-.9-4.03-.69l-12.45-6.77c1.49-.21 2.87.06 4.03.69z"></path></defs><clipPath id="ah"><use overflow="visible" xlink:href="#ag"></use></clipPath><g clip-path="url(#ah)"><path fill="#9ea0a2" d="m54.22 42.72-12.45-6.77c.91-.13 1.79-.08 2.6.13l12.45 6.77c-.8-.21-1.68-.26-2.6-.13"></path><path fill="#999c9d" d="m56.83 42.85-12.45-6.77c.42.11.81.26 1.19.44l12.45 6.77c-.38-.18-.78-.33-1.19-.44"></path><path fill="#949798" d="m58.02 43.29-12.45-6.77c.08.04.15.08.23.12l12.45 6.77c-.08-.04-.15-.08-.23-.12"></path></g><defs><path id="ai" d="m50.16 58.32-12.45-6.77c-2.11-1.15-3.51-3.49-3.5-6.39.01-4.5 3.4-8.63 7.57-9.21l12.45 6.77c-4.17.59-7.56 4.71-7.57 9.21-.01 2.9 1.39 5.24 3.5 6.39z"></path></defs><clipPath id="aj"><use overflow="visible" xlink:href="#ai"></use></clipPath><g clip-path="url(#aj)"><path fill="#7c7e7f" d="m50.16 58.32-12.45-6.77c-2.11-1.15-3.51-3.49-3.5-6.39 0-1.11.21-2.19.58-3.21l12.45 6.77c-.37 1.02-.58 2.1-.58 3.21-.01 2.9 1.39 5.24 3.5 6.39"></path><path fill="#818384" d="m47.24 48.73-12.45-6.77c.16-.44.35-.86.57-1.27l12.45 6.77c-.22.4-.41.83-.57 1.27"></path><path fill="#868889" d="m47.81 47.45-12.45-6.77c.19-.35.39-.68.62-1l12.45 6.77c-.23.33-.43.66-.62 1"></path><path fill="#8b8d8e" d="m48.43 46.46-12.45-6.77c.21-.3.44-.59.68-.86l12.45 6.77c-.25.27-.47.55-.68.86"></path><path fill="#8f9293" d="m49.11 45.59-12.45-6.77c.24-.28.5-.54.77-.78l12.45 6.77c-.27.25-.53.51-.77.78"></path><path fill="#949798" d="m49.88 44.81-12.45-6.77c.29-.26.6-.5.91-.72l12.45 6.77c-.32.22-.62.46-.91.72"></path><path fill="#999c9d" d="m50.79 44.09-12.45-6.77c.39-.27.8-.51 1.23-.71l12.45 6.77c-.43.2-.84.44-1.23.71"></path><path fill="#9ea0a2" d="m52.02 43.38-12.45-6.77c.7-.33 1.44-.56 2.21-.66l12.45 6.77c-.77.11-1.51.34-2.21.66"></path></g><path fill="#3f807a" d="m58.56 25.08-12.44-6.77 2.71-.38 12.44 6.77z"></path><defs><path id="ak" d="M48.95 60.54 36.5 53.77a8.093 8.093 0 0 1-2.2-1.75c-1.22-1.36-2.03-3.17-2.27-5.24-.05-.42-.07-.85-.07-1.3 0-.11 0-.23.01-.34.04-1.15.24-2.27.58-3.34.36-1.12.88-2.19 1.52-3.15 1.8-2.71 4.58-4.68 7.71-5.12.51-.07 1.01-.1 1.49-.09l12.45 6.77c-.49-.01-.99.02-1.49.09-3.12.44-5.91 2.41-7.71 5.12-.64.97-1.16 2.03-1.52 3.15-.35 1.07-.55 2.2-.58 3.34 0 .11-.01.23-.01.34 0 .44.02.87.07 1.3.24 2.08 1.05 3.88 2.27 5.24.63.71 1.38 1.3 2.2 1.75z"></path></defs><clipPath id="al"><use overflow="visible" xlink:href="#ak"></use></clipPath><g clip-path="url(#al)"><path fill="#742435" d="M48.95 60.54 36.5 53.77a8.093 8.093 0 0 1-2.2-1.75c-1.22-1.36-2.03-3.17-2.27-5.24-.05-.42-.07-.85-.07-1.3 0-.11 0-.23.01-.34.04-1.15.24-2.27.58-3.34.05-.16.11-.32.17-.48l12.45 6.77c-.06.16-.11.32-.17.48-.35 1.07-.55 2.2-.58 3.34 0 .11-.01.23-.01.34 0 .44.02.87.07 1.3.24 2.08 1.05 3.88 2.27 5.24.63.71 1.38 1.3 2.2 1.75"></path><path fill="#782637" d="m45.17 48.08-12.45-6.77c.21-.57.46-1.12.74-1.65l12.45 6.77c-.28.54-.53 1.09-.74 1.65"></path><path fill="#7d2739" d="m45.91 46.44-12.45-6.77c.19-.35.39-.69.61-1.02l.18-.27 12.45 6.77-.18.27c-.22.32-.42.67-.61 1.02"></path><path fill="#81293b" d="m46.71 45.14-12.45-6.77c.27-.39.57-.76.88-1.12l12.45 6.77c-.31.36-.61.73-.88 1.12"></path><path fill="#862a3d" d="m47.59 44.02-12.45-6.77c.31-.36.65-.69 1-1.01l12.45 6.77c-.35.32-.69.66-1 1.01"></path><path fill="#8a2b3f" d="m48.59 43.01-12.45-6.77c.38-.34.77-.65 1.19-.94l12.45 6.77c-.42.29-.81.61-1.19.94"></path><path fill="#8f2d41" d="M49.77 42.08 37.33 35.3c.5-.35 1.03-.65 1.58-.91l12.45 6.77c-.55.26-1.08.57-1.59.92"></path><path fill="#932e43" d="m51.36 41.16-12.45-6.77a9.93 9.93 0 0 1 2.87-.87c.51-.07 1.01-.1 1.49-.09l12.45 6.77c-.49-.01-.99.02-1.49.09-1 .15-1.97.44-2.87.87"></path></g><path fill="#aa8352" d="m27.12 55.99-12.45-6.78 17.37-2.44 12.44 6.77z"></path><path fill="#7b7c7e" d="m37.58 54.11-12.45-6.77V46.1l12.45 6.77z"></path><path fill="#aaacaf" d="M37.58 52.87 25.13 46.1l6.84-.96 12.45 6.77z"></path><path fill="#7b5e3b" d="m46.52 45.41-12.44-6.77.02-13.08 12.45 6.77z"></path><path fill="#7b7c7e" d="M45 48.57 32.55 41.8l.01-4.74 12.45 6.77z"></path><defs><path id="am" d="M25.13 46.1c.07-.35 1.49-6.92 7.43-9.04l12.45 6.77c-2.97 1.06-4.81 3.24-5.92 5.19-4.15-2.26-8.3-4.51-12.45-6.77 4.15 2.26 8.3 4.51 12.44 6.77-1.1 1.95-1.48 3.68-1.51 3.85-3.72-2.03-8.7-4.74-12.44-6.77z"></path></defs><clipPath id="an"><use overflow="visible" xlink:href="#am"></use></clipPath><g clip-path="url(#an)"><path fill="#225970" d="M37.58 52.87 25.13 46.1c.02-.1.16-.74.49-1.64l12.45 6.77c-.33.9-.47 1.54-.49 1.64"></path><path fill="#235d75" d="m38.07 51.23-12.45-6.77c.21-.56.49-1.23.87-1.94l12.45 6.77c-.38.71-.66 1.38-.87 1.94"></path><path fill="#246079" d="m38.94 49.3-12.45-6.77c.24-.45.53-.92.86-1.39L39.8 47.9c-.33.47-.62.94-.86 1.4"></path><path fill="#26647d" d="m39.8 47.9-12.45-6.77c.26-.37.54-.73.86-1.09l12.45 6.77c-.32.36-.61.73-.86 1.09"></path><path fill="#276782" d="M40.65 46.82 28.2 40.04c.28-.32.59-.63.92-.93l12.45 6.77c-.33.31-.64.62-.92.94"></path><path fill="#286b86" d="m41.57 45.89-12.45-6.77c.33-.29.68-.58 1.06-.84l12.45 6.77c-.38.26-.74.54-1.06.84"></path><path fill="#2a6e8a" d="m42.63 45.05-12.45-6.77c.45-.31.93-.59 1.46-.84l12.45 6.77c-.53.24-1.01.53-1.46.84"></path><path fill="#2b728f" d="m44.09 44.21-12.45-6.77c.29-.14.6-.27.92-.38l12.45 6.77c-.32.11-.63.24-.92.38"></path></g><path fill="#aaacaf" d="m36.05 54.33-12.44-6.77 1.52-.22 12.45 6.77z"></path><path fill="#7b7c7e" d="m36.05 54.33-12.44-6.77v-1.25l12.45 6.77zM46.13 43.67 33.69 36.9v-1.64l12.45 6.77z"></path><path fill="#aaacaf" d="m45.01 42.19-12.44-6.77 1.12-.16 12.45 6.77z"></path><path fill="#7b7c7e" d="m45.01 42.19-12.44-6.77.01-8 12.45 6.77z"></path><path fill="#255c77" d="M37.6 44.87 25.15 38.1l7.41-1.04 12.45 6.77z"></path><path fill="#1b4256" d="M37.58 52.87 25.13 46.1l.02-8 12.45 6.77z"></path><path fill="#aaacaf" d="m45.01 43.83-12.45-6.77 1.13-.16 12.44 6.77z"></path><path fill="#aaacaf" d="m37.6 43.23-12.45-6.77 7.42-1.04 12.44 6.77zM36.07 45.08l-12.44-6.77 1.52-.21 12.45 6.77z"></path><path fill="#7b7c7e" d="m36.06 53.08-12.45-6.77.02-8 12.44 6.77z"></path><path fill="#aaacaf" d="m36.08 43.45-12.45-6.78 1.52-.21 12.45 6.77z"></path><defs><path id="ao" d="m37.6 43.23-12.45-6.77c.07-.35 1.49-6.93 7.43-9.04l12.45 6.77c-5.95 2.11-7.36 8.7-7.43 9.04z"></path></defs><clipPath id="ap"><use overflow="visible" xlink:href="#ao"></use></clipPath><g clip-path="url(#ap)"><path fill="#225970" d="m37.6 43.23-12.45-6.77c.02-.1.16-.74.49-1.64l12.45 6.77c-.33.9-.47 1.54-.49 1.64"></path><path fill="#235d75" d="m38.09 41.59-12.45-6.77c.21-.56.49-1.23.87-1.94l12.45 6.77c-.38.71-.66 1.38-.87 1.94"></path><path fill="#246079" d="m38.96 39.65-12.45-6.77c.24-.45.53-.92.86-1.39l12.45 6.77c-.33.47-.62.94-.86 1.39"></path><path fill="#26647d" d="m39.81 38.26-12.45-6.77c.26-.37.54-.73.85-1.09l12.45 6.77c-.31.36-.59.72-.85 1.09"></path><path fill="#276782" d="M40.67 37.17 28.22 30.4c.28-.32.58-.63.91-.93l12.45 6.77c-.33.3-.63.62-.91.93"></path><path fill="#286b86" d="m41.58 36.25-12.45-6.77c.33-.29.68-.58 1.06-.84l12.45 6.77c-.38.26-.73.54-1.06.84"></path><path fill="#2a6e8a" d="m42.64 35.41-12.45-6.77c.45-.31.93-.59 1.46-.84l12.45 6.77c-.53.25-1.01.53-1.46.84"></path><path fill="#2b728f" d="M44.1 34.57 31.65 27.8c.3-.14.61-.27.93-.38l12.45 6.77c-.32.11-.63.24-.93.38"></path></g><path fill="#aaacaf" d="M28.64 54.13 16.2 47.36l7.41-1.05 12.45 6.77z"></path><path fill="#1b4256" d="m37.6 43.23-12.45-6.77.02-8 12.44 6.77z"></path><path fill="#255c77" d="m37.61 35.23-12.44-6.77 7.41-1.04 12.45 6.77z"></path><path fill="#7b7c7e" d="m37.61 35.23-12.44-6.77v-.91l12.45 6.77z"></path><defs><path id="aq" d="M28.64 54.13 16.2 47.36c.07-.35 1.49-6.92 7.43-9.04l12.45 6.77c-5.94 2.12-7.36 8.69-7.44 9.04z"></path></defs><clipPath id="ar"><use overflow="visible" xlink:href="#aq"></use></clipPath><g clip-path="url(#ar)"><path fill="#225970" d="M28.64 54.13 16.2 47.36c.02-.1.16-.73.49-1.63l12.45 6.77c-.34.9-.48 1.53-.5 1.63"></path><path fill="#235d75" d="m29.13 52.5-12.45-6.77c.21-.56.49-1.23.87-1.94L30 50.56c-.38.71-.66 1.38-.87 1.94"></path><path fill="#246079" d="m30 50.56-12.45-6.77c.24-.46.53-.93.86-1.4l12.45 6.77c-.33.47-.61.94-.86 1.4"></path><path fill="#26647d" d="m30.86 49.16-12.45-6.77c.26-.37.54-.73.86-1.09l12.45 6.77c-.32.36-.6.72-.86 1.09"></path><path fill="#276782" d="M31.72 48.07 19.27 41.3c.28-.32.59-.63.92-.93l12.45 6.77c-.34.3-.64.61-.92.93"></path><path fill="#286b86" d="m32.63 47.14-12.45-6.77c.33-.29.68-.58 1.06-.84l12.45 6.77c-.38.27-.73.55-1.06.84"></path><path fill="#2a6e8a" d="m33.69 46.3-12.45-6.77c.45-.31.93-.59 1.46-.84l12.45 6.77c-.52.25-1.01.53-1.46.84"></path><path fill="#2b728f" d="M35.15 45.46 22.7 38.69c.29-.14.6-.26.92-.38l12.45 6.77c-.32.12-.62.24-.92.38"></path></g><path fill="#7b7c7e" d="m36.08 43.45-12.45-6.78.01-8 12.45 6.77z"></path><path fill="#aaacaf" d="m36.09 34.53-12.44-6.77 1.52-.21 12.45 6.77z"></path><path fill="#7b7c7e" d="m36.09 35.44-12.45-6.77.01-.91 12.44 6.77z"></path><path fill="#1b4256" d="M28.64 54.13 16.2 47.36l.01-8.01 12.45 6.77z"></path><path fill="#255c77" d="m28.66 46.12-12.45-6.77 7.42-1.04 12.44 6.77z"></path><path fill="#aaacaf" d="m28.66 44.49-12.45-6.77 7.42-1.05 12.45 6.78zM27.13 46.34l-12.44-6.77 1.52-.22 12.45 6.77z"></path><path fill="#7b7c7e" d="m27.12 55.99-12.45-6.78.02-9.64 12.44 6.77z"></path><path fill="#aaacaf" d="m27.14 44.7-12.45-6.77 1.52-.21 12.45 6.77z"></path><path fill="#aaacaf" d="m27.09 44.71-12.44-6.77.04-.01 12.45 6.77z"></path><path fill="#7b7c7e" d="m27.09 46.34-12.45-6.77.01-1.63 12.44 6.77z"></path><defs><path id="as" d="m28.66 44.49-12.45-6.77c.07-.35 1.49-6.93 7.43-9.04l12.45 6.77c-5.94 2.11-7.35 8.69-7.43 9.04z"></path></defs><clipPath id="at"><use overflow="visible" xlink:href="#as"></use></clipPath><g clip-path="url(#at)"><path fill="#225970" d="m28.66 44.49-12.45-6.77c.02-.1.16-.73.49-1.63l12.45 6.77c-.33.89-.47 1.53-.49 1.63"></path><path fill="#235d75" d="M29.15 42.86 16.7 36.09c.21-.57.49-1.24.87-1.94l12.45 6.77c-.38.7-.66 1.37-.87 1.94"></path><path fill="#246079" d="m30.02 40.91-12.45-6.77c.24-.45.53-.93.86-1.4l12.45 6.77c-.33.48-.61.95-.86 1.4"></path><path fill="#26647d" d="m30.88 39.52-12.45-6.77c.26-.37.54-.73.86-1.09l12.45 6.77c-.32.35-.6.72-.86 1.09"></path><path fill="#276782" d="m31.73 38.43-12.45-6.77c.28-.32.59-.63.92-.93l12.45 6.77c-.33.3-.64.61-.92.93"></path><path fill="#286b86" d="M32.65 37.5 20.2 30.73c.33-.29.68-.58 1.06-.84l12.45 6.77c-.38.27-.73.55-1.06.84"></path><path fill="#2a6e8a" d="m33.71 36.66-12.45-6.77c.45-.31.93-.59 1.46-.84l12.45 6.77c-.53.25-1.01.53-1.46.84"></path><path fill="#2b728f" d="m35.17 35.82-12.45-6.77c.3-.14.6-.27.92-.38l12.45 6.77c-.32.12-.63.25-.92.38"></path></g><path fill="#255c77" d="m28.68 36.49-12.45-6.78 7.41-1.04 12.45 6.77z"></path><path fill="#1b4256" d="m28.66 44.49-12.45-6.77.02-8.01 12.45 6.78z"></path><path fill="#7b7c7e" d="m27.14 44.7-12.45-6.77.02-9.65 12.45 6.77z"></path><path fill="#aaacaf" d="m27.16 35.05-12.45-6.77 19.39-2.72 12.45 6.77z"></path><path fill="#aa8352" d="M17.97 33.76 5.52 26.99l37.78-5.31 12.44 6.77z"></path><path fill="#7b5e3b" d="M17.91 62.84 5.47 56.07l.06-32.05 12.44 6.77z"></path><path fill="#d2a165" d="m17.97 33.76-.05 29.08 28.84-4.05c-1.22-1.36-2.03-3.17-2.27-5.24l-17.37 2.44-.03-9.64.05-1.64.02-9.65 19.39-2.73-.02 13.08c1.8-2.71 4.58-4.68 7.71-5.12.51-.07 1.01-.1 1.49-.09l.02-11.76-37.78 5.32z"></path><path fill="#c33d59" d="M55.72 40.21c4.69.12 8.29 4 8.28 9.29-.01 5.84-4.41 11.18-9.81 11.94-2.98.42-5.65-.64-7.44-2.65-1.22-1.36-2.03-3.17-2.27-5.24-.05-.42-.07-.85-.07-1.3 0-.11 0-.23.01-.34.04-1.15.24-2.27.58-3.34.36-1.12.88-2.19 1.52-3.15 1.8-2.71 4.58-4.68 7.71-5.12.51-.08 1.01-.1 1.49-.09zm-1.53 18.81c4.16-.59 7.55-4.71 7.56-9.2.01-4.5-3.37-7.68-7.53-7.09-4.17.59-7.56 4.71-7.57 9.21 0 4.49 3.37 7.66 7.54 7.08"></path><path fill="#3996bd" d="M37.58 52.87c.07-.35 1.49-6.92 7.43-9.04L45 48.57c-.35 1.07-.55 2.2-.58 3.34l-6.84.96z"></path><path fill="#2e7193" d="M45.01 43.83c-5.94 2.13-7.35 8.7-7.43 9.04l.01-8 7.42-1.04z"></path><path fill="#d2d4d8" d="m36.06 53.08.01-8 1.53-.21-.02 8v1.24l-1.53.22z"></path><path fill="#2e7193" d="M45.03 34.19c-5.94 2.12-7.35 8.7-7.43 9.04l.01-8 7.42-1.04z"></path><path fill="#3996bd" d="M37.6 43.23c.07-.35 1.49-6.93 7.43-9.04l-.01 8-7.42 1.04zm-8.96 10.9c.07-.35 1.49-6.92 7.43-9.04l-.01 8-7.42 1.04z"></path><path fill="#d2d4d8" d="m36.09 34.53 1.53-.21-.01.91-.01 8-1.52.22.01-8.01z"></path><path fill="#2e7193" d="M36.07 45.08c-5.94 2.12-7.35 8.7-7.43 9.04l.01-8 7.42-1.04z"></path><path fill="#d2d4d8" d="M44.42 51.91c0 .11-.01.23-.01.34 0 .44.02.87.07 1.3l-17.37 2.44.02-9.65 1.52-.21-.01 8 7.41-1.04v1.24l1.52-.21v-1.24l6.85-.97z"></path><path fill="#d2d4d8" d="m46.14 42.03-.01 1.64-1.12.16-7.41 1.04-1.53.21-7.41 1.04-1.53.22h-.04v-1.63l.05-.01 1.52-.21 7.42-1.04 1.52-.22 7.41-1.04z"></path><path fill="#3996bd" d="M28.66 44.49c.07-.35 1.49-6.93 7.43-9.04l-.01 8-7.42 1.04z"></path><path fill="#2e7193" d="m28.68 36.49 7.41-1.04c-5.94 2.12-7.35 8.7-7.43 9.04l.02-8z"></path><path fill="#d2d4d8" d="m27.16 35.05 19.39-2.73-.02 13.08c-.64.97-1.16 2.03-1.52 3.15l.01-4.74 1.12-.16v-1.64l-1.12.16.01-8-7.41 1.04v-.91l-1.52.21v.91l-7.41 1.04-.01 8-1.52.21v-9.62z"></path><path fill="#343f44" d="m58.56 25.08-12.44-6.77L24.45 3.39l12.44 6.78z"></path><path fill="#6a4219" d="M17.97 33.76 5.52 26.99l.01-2.97 12.44 6.77z"></path><path fill="#935c22" d="M17.97 30.79 5.53 24.02l37.78-5.31 12.45 6.77z"></path><path fill="#3a7771" d="M15.16 31.18 2.71 24.41 24.45 3.39l12.44 6.78z"></path><path fill="#445259" d="m24.67 19.75-12.45-6.77L24.45 1.16 36.9 7.93z"></path><path fill="#b6712a" d="m55.76 25.48-.01 2.97-37.78 5.31v-2.97z"></path><path fill="#445259" d="M18.75 25.46 6.31 18.69l5.91-5.71 12.45 6.77z"></path><path fill="#3f807a" d="M12.45 31.57 0 24.8l2.71-.39 12.45 6.77z"></path><path fill="#5b6d76" d="M36.9 7.93 61.28 24.7l-2.72.38-21.67-14.91-21.73 21.01-2.7.38 6.29-6.1 5.92-5.71z"></path><path fill="#445259" d="M12.46 31.56.01 24.79l6.3-6.1 12.44 6.77z"></path><path fill="#4e9e96" d="m36.89 10.17 21.67 14.91 2.71-.38-5.51.78-37.79 5.31-5.52.78 2.71-.39zM18.77 16.76v2.22l5.9-.83v1.6l-5.92 5.71z"></path><path fill="#3f807a" d="M18.77 18.98 6.32 12.21l5.91-.83 12.44 6.77z"></path><path fill="#465e64" d="m24.68 15.93-.01 2.22-5.9.83v-2.22z"></path><path fill="#2d5c58" d="M18.75 25.46 6.31 18.69l.01-8.71 12.45 6.78z"></path><path fill="#29373a" d="M18.77 18.98 6.32 12.21V9.98l12.45 6.78z"></path><path fill="#394c51" d="M18.77 16.76 6.32 9.98l5.91-.83 12.45 6.78z"></path><path fill="#3f807a" d="M17.14 12.82 4.69 6.05l9.18-1.29 12.45 6.77z"></path><path fill="#2d5c58" d="M17.13 16.98 4.68 10.21l.01-4.16 12.45 6.77z"></path><path fill="#4e9e96" d="m26.32 11.53-.01 4.16-9.18 1.29.01-4.16z"></path></svg>